<svg xmlns="http://www.w3.org/2000/svg" viewBox="0 0 128 128">
  <!-- Ball of yarn -->
  <circle cx="64" cy="64" r="50" fill="#f8a5c2"/>
  <path d="M64 14c-27.6 0-50 22.4-50 50s22.4 50 50 50 50-22.4 50-50-22.4-50-50-50zm0 90c-22.1 0-40-17.9-40-40s17.9-40 40-40 40 17.9 40 40-17.9 40-40 40z" fill="#e91e63" opacity="0.3"/>
  <!-- Yarn lines -->
  <path d="M30 64c0-18.8 15.2-34 34-34" stroke="#e91e63" stroke-width="3" fill="none" stroke-linecap="round"/>
  <path d="M45 40c10-8 25-8 35 2" stroke="#e91e63" stroke-width="3" fill="none" stroke-linecap="round"/>
  <path d="M35 55c5-15 20-20 35-15" stroke="#e91e63" stroke-width="3" fill="none" stroke-linecap="round"/>
  <path d="M40 75c0-15 15-25 30-20" stroke="#e91e63" stroke-width="3" fill="none" stroke-linecap="round"/>
  <!-- Crochet hook -->
  <path d="M95 95l-25-25" stroke="#e91e63" stroke-width="4" stroke-linecap="round"/>
  <circle cx="100" cy="100" r="8" fill="#fce4ec" stroke="#e91e63" stroke-width="2"/>
</svg>
